<svg width="58" height="58" viewBox="0 0 58 58" fill="none" xmlns="http://www.w3.org/2000/svg">
<mask id="mask0_13_31" style="mask-type:alpha" maskUnits="userSpaceOnUse" x="0" y="0" width="58" height="58">
<rect width="58" height="58" fill="#D9D9D9"/>
</mask>
<g mask="url(#mask0_13_31)">
<path d="M48.2125 50.75C43.0167 50.75 37.9517 49.592 33.0177 47.276C28.0837 44.9601 23.7135 41.899 19.9073 38.0927C16.101 34.2865 13.0399 29.9163 10.724 24.9823C8.40799 20.0483 7.25 14.9833 7.25 9.7875C7.25 9.0625 7.49167 8.45833 7.975 7.975C8.45833 7.49167 9.0625 7.25 9.7875 7.25H19.575C20.1389 7.25 20.6424 7.43125 21.0854 7.79375C21.5285 8.15625 21.7903 8.61944 21.8708 9.18333L23.4417 17.6417C23.5222 18.2056 23.5122 18.7191 23.4115 19.1823C23.3108 19.6455 23.0792 20.0583 22.7167 20.4208L16.9167 26.3417C18.6083 29.2417 20.7229 31.9604 23.2604 34.4979C25.7979 37.0354 28.5972 39.2306 31.6583 41.0833L37.3375 35.4042C37.7 35.0417 38.1733 34.7698 38.7573 34.5885C39.3413 34.4073 39.9153 34.3569 40.4792 34.4375L48.8167 36.1292C49.3806 36.25 49.8438 36.5219 50.2062 36.9448C50.5688 37.3677 50.75 37.8611 50.75 38.425V48.2125C50.75 48.9375 50.5083 49.5417 50.025 50.025C49.5417 50.5083 48.9375 50.75 48.2125 50.75Z" fill="#1C1B1F"/>
</g>
</svg>
