<svg width="44" height="44" viewBox="0 0 44 44" fill="none" xmlns="http://www.w3.org/2000/svg">
<g clip-path="url(#clip0_13_42)">
<path fill-rule="evenodd" clip-rule="evenodd" d="M30.8794 12.0044C28.6079 9.83797 25.5765 8.65774 22.44 8.70625C16.7005 8.70625 11.826 12.5783 10.088 17.7923C9.16644 20.5247 9.16644 23.4834 10.088 26.2157H10.0961C11.8421 31.4217 16.7086 35.2938 22.4481 35.2938C25.4108 35.2938 27.9543 34.536 29.9256 33.1975V33.1921C32.2456 31.6562 33.8301 29.2391 34.3232 26.5068H22.44V18.035H43.1911C43.4498 19.5063 43.571 21.0098 43.571 22.5053C43.571 29.1967 41.1797 34.854 37.0188 38.6856L37.0231 38.689C33.3773 42.0519 28.3735 44 22.44 44C14.1218 44 6.51494 39.3115 2.78023 31.8825C-0.340082 25.6661 -0.340074 18.3421 2.78026 12.1257C6.51496 4.68866 14.1218 1.77106e-05 22.44 1.77106e-05C27.9046 -0.0646525 33.1833 1.98863 37.1605 5.72333L30.8794 12.0044Z" fill="white" fill-opacity="0.7"/>
</g>
<defs>
<clipPath id="clip0_13_42">
<rect width="44" height="44" fill="white"/>
</clipPath>
</defs>
</svg>
