<svg width="58" height="58" viewBox="0 0 58 58" fill="none" xmlns="http://www.w3.org/2000/svg">
<mask id="mask0_13_19" style="mask-type:alpha" maskUnits="userSpaceOnUse" x="0" y="0" width="58" height="58">
<rect width="58" height="58" fill="#D9D9D9"/>
</mask>
<g mask="url(#mask0_13_19)">
<path d="M29 29.0002C30.3292 29.0002 31.467 28.5269 32.4136 27.5804C33.3601 26.6338 33.8334 25.496 33.8334 24.1668C33.8334 22.8377 33.3601 21.6998 32.4136 20.7533C31.467 19.8068 30.3292 19.3335 29 19.3335C27.6709 19.3335 26.533 19.8068 25.5865 20.7533C24.64 21.6998 24.1667 22.8377 24.1667 24.1668C24.1667 25.496 24.64 26.6338 25.5865 27.5804C26.533 28.5269 27.6709 29.0002 29 29.0002ZM29 53.1668C22.5153 47.6488 17.6719 42.5234 14.4698 37.7908C11.2677 33.0581 9.66669 28.6779 9.66669 24.6502C9.66669 18.6085 11.6101 13.7953 15.4969 10.2106C19.3837 6.62586 23.8847 4.8335 29 4.8335C34.1153 4.8335 38.6163 6.62586 42.5031 10.2106C46.39 13.7953 48.3334 18.6085 48.3334 24.6502C48.3334 28.6779 46.7323 33.0581 43.5302 37.7908C40.3281 42.5234 35.4847 47.6488 29 53.1668Z" fill="#1C1B1F"/>
</g>
</svg>
