<svg width="58" height="58" viewBox="0 0 58 58" fill="none" xmlns="http://www.w3.org/2000/svg">
<mask id="mask0_13_13" style="mask-type:alpha" maskUnits="userSpaceOnUse" x="0" y="0" width="58" height="58">
<rect width="58" height="58" fill="#D9D9D9"/>
</mask>
<g mask="url(#mask0_13_13)">
<path d="M9.66671 48.3337C8.33754 48.3337 7.19969 47.8604 6.25317 46.9139C5.30664 45.9673 4.83337 44.8295 4.83337 43.5003V14.5003C4.83337 13.1712 5.30664 12.0333 6.25317 11.0868C7.19969 10.1403 8.33754 9.66699 9.66671 9.66699H48.3334C49.6625 9.66699 50.8004 10.1403 51.7469 11.0868C52.6934 12.0333 53.1667 13.1712 53.1667 14.5003V43.5003C53.1667 44.8295 52.6934 45.9673 51.7469 46.9139C50.8004 47.8604 49.6625 48.3337 48.3334 48.3337H9.66671ZM29 31.417L48.3334 19.3337V14.5003L29 26.5837L9.66671 14.5003V19.3337L29 31.417Z" fill="#1C1B1F"/>
</g>
</svg>
