<svg width="44" height="44" viewBox="0 0 44 44" fill="none" xmlns="http://www.w3.org/2000/svg">
<g clip-path="url(#clip0_13_50)">
<path d="M13.842 39.8749C30.4416 39.8749 39.5235 26.1188 39.5235 14.1933C39.5235 13.8066 39.5149 13.4113 39.4977 13.0245C41.2644 11.7469 42.7891 10.1643 44 8.35126C42.3546 9.08331 40.6077 9.56141 38.8188 9.76923C40.7024 8.64021 42.1126 6.86658 42.7883 4.77712C41.0163 5.82723 39.0786 6.568 37.058 6.96766C35.6965 5.52107 33.8965 4.56326 31.9361 4.2423C29.9757 3.92135 27.9642 4.25514 26.2125 5.19205C24.4609 6.12897 23.0666 7.61684 22.2454 9.42562C21.4241 11.2344 21.2216 13.2633 21.6691 15.1988C18.0812 15.0187 14.5712 14.0867 11.3666 12.4631C8.16205 10.8394 5.33444 8.56051 3.06711 5.77399C1.91473 7.76082 1.5621 10.1119 2.08089 12.3494C2.59968 14.5869 3.95095 16.5429 5.86008 17.8199C4.42682 17.7743 3.02496 17.3885 1.77031 16.6941V16.8058C1.76903 18.8908 2.48985 20.912 3.81023 22.5256C5.13062 24.1393 6.96909 25.2459 9.01312 25.6574C7.68543 26.0206 6.29197 26.0735 4.94055 25.812C5.51733 27.6052 6.63955 29.1735 8.15058 30.2982C9.66161 31.4228 11.4861 32.0476 13.3693 32.0855C10.1721 34.5969 6.22265 35.9591 2.15703 35.9527C1.43603 35.9516 0.715732 35.9074 0 35.8203C4.13024 38.4701 8.93481 39.8774 13.842 39.8749Z" fill="white" fill-opacity="0.7"/>
</g>
<defs>
<clipPath id="clip0_13_50">
<rect width="44" height="44" fill="white"/>
</clipPath>
</defs>
</svg>
